<svg width="23" height="23" viewBox="0 0 23 23" fill="none" xmlns="http://www.w3.org/2000/svg">
<path d="M4.51371 17.433C4.60954 17.4713 4.69579 17.4905 4.79163 17.4905H14.6337C15.0266 17.4905 15.3525 17.1647 15.3525 16.7718C15.3525 16.3788 15.0266 16.053 14.6337 16.053H6.52621L18.7162 3.86301C18.9941 3.5851 18.9941 3.1251 18.7162 2.84718C18.581 2.71351 18.3985 2.63855 18.2083 2.63855C18.0181 2.63855 17.8356 2.71351 17.7004 2.84718L5.51038 15.0372V6.92968C5.51038 6.53676 5.18454 6.21093 4.79163 6.21093C4.39871 6.21093 4.07288 6.53676 4.07288 6.92968V16.7718C4.07288 16.8676 4.09204 16.9538 4.13038 17.0497C4.19746 17.2222 4.34121 17.3659 4.51371 17.433ZM19.6458 20.3646H3.35413C2.96121 20.3646 2.63538 20.6904 2.63538 21.0833C2.63538 21.4762 2.96121 21.8021 3.35413 21.8021H19.6458C20.0387 21.8021 20.3645 21.4762 20.3645 21.0833C20.3645 20.6904 20.0387 20.3646 19.6458 20.3646Z" fill="#6953D3"/>
</svg>
