<svg width="21" height="20" viewBox="0 0 21 20" fill="none" xmlns="http://www.w3.org/2000/svg">
<path d="M20.9166 5.177C20.9166 5.892 20.3541 6.477 19.6666 6.477H1.33331C0.645813 6.477 0.083313 5.892 0.083313 5.177V5.16617C0.083313 2.68533 2.0104 0.681168 4.39581 0.681168H16.5937C18.9791 0.681168 20.9166 2.69617 20.9166 5.177ZM0.083313 9.40417V14.8317C0.083313 17.3125 2.0104 19.3167 4.39581 19.3167H16.5937C18.9791 19.3167 20.9166 17.3017 20.9166 14.8208V9.40417C20.9166 8.68917 20.3541 8.10417 19.6666 8.10417H1.33331C0.645813 8.10417 0.083313 8.68917 0.083313 9.40417ZM6.33331 15.6875H4.24998C3.8229 15.6875 3.46873 15.3192 3.46873 14.875C3.46873 14.4308 3.8229 14.0625 4.24998 14.0625H6.33331C6.7604 14.0625 7.11456 14.4308 7.11456 14.875C7.11456 15.3192 6.7604 15.6875 6.33331 15.6875ZM13.1041 15.6875H8.93748C8.5104 15.6875 8.15623 15.3192 8.15623 14.875C8.15623 14.4308 8.5104 14.0625 8.93748 14.0625H13.1041C13.5312 14.0625 13.8854 14.4308 13.8854 14.875C13.8854 15.3192 13.5312 15.6875 13.1041 15.6875Z" fill="#6953D3"/>
</svg>
