<svg width="14" height="20" viewBox="0 0 14 20" fill="none" xmlns="http://www.w3.org/2000/svg">
<path d="M7.14662 8.96414C7.05495 8.95497 6.94495 8.95497 6.84412 8.96414C5.79197 8.92841 4.79504 8.48457 4.06445 7.7266C3.33385 6.96863 2.92696 5.95605 2.92995 4.9033C2.92995 2.65747 4.74495 0.833303 6.99995 0.833303C7.53383 0.823673 8.06438 0.919292 8.5613 1.1147C9.05823 1.31011 9.5118 1.60148 9.89611 1.97218C10.2804 2.34288 10.588 2.78565 10.8012 3.2752C11.0144 3.76475 11.1291 4.29151 11.1387 4.82539C11.1483 5.35926 11.0527 5.88981 10.8573 6.38674C10.6619 6.88366 10.3705 7.33723 9.99982 7.72155C9.62913 8.10587 9.18636 8.41341 8.6968 8.62661C8.20725 8.83982 7.6805 8.95451 7.14662 8.96414ZM2.56329 12.3466C0.344953 13.8316 0.344953 16.2516 2.56329 17.7275C5.08412 19.4141 9.21829 19.4141 11.7391 17.7275C13.9575 16.2425 13.9575 13.8225 11.7391 12.3466C9.22745 10.6691 5.09329 10.6691 2.56329 12.3466Z" stroke="#444444" stroke-linecap="round" stroke-linejoin="round"/>
</svg>
